# xmcd
#
# Track frame offsets: 
#        150
#        37580
#        57994
#        77324
#        96613
#
# Disc length: 1574 seconds
#
# Revision: 1
# Processed by: cddbd v1.5.2PL0 Copyright (c) Steve Scherf et al.
# Submitted via: ExactAudioCopy v0.99pb5
#
DISCID=30062405
DTITLE=Kenny Burrell - Cool Jazz Collection Vol.42
DYEAR=2009
DGENRE=Jazz
TTITLE0=Don't Cry Baby
TTITLE1=Will You Still Be Mine
TTITLE2=Moon and Sand
TTITLE3=Greensleeves
TTITLE4=I Surrender Dear
EXTD=YEAR: 2009
EXTT0=
EXTT1=
EXTT2=
EXTT3=
EXTT4=
PLAYORDER=
